<svg width="382" height="265" viewBox="0 0 382 265" fill="none" xmlns="http://www.w3.org/2000/svg">
<g clip-path="url(#clip0_614_6882)">
<path d="M296.88 200.35C285.3 204.07 273.29 205.71 261.3 207C247.91 208.44 234.42 208.48 220.93 208.21C211.28 208.02 201.7 207.14 192.12 206.17C191.15 206.07 189.82 206.31 189.59 205.12C189.29 203.56 190.84 203.48 191.85 203.05C198.14 200.38 204.34 197.57 209.74 193.28C217.15 187.38 216.92 183.16 209.83 177.02C192.7 162.19 181.36 143.67 177.02 121.38C166.88 69.3002 195.65 20.8802 246.34 4.62021C264.79 -1.29979 283.58 -1.18979 302.45 3.04021C304.42 3.48021 305.51 5.79021 307.78 5.10021C313.8 7.26021 319.83 9.41021 325.42 12.5802C354.51 28.2302 370.87 53.0202 376.07 85.0902C380.75 113.96 373.7 140.39 355.99 163.62C345.41 177.49 331.75 187.72 315.3 193.96C309.42 196.84 303.05 198.31 296.88 200.35Z" fill="#42B8EA"/>
<path d="M314.89 193.21C333.9 185.68 348.63 172.88 359.86 156.01C368.56 142.94 373.89 128.33 375.53 112.84C377.23 96.7304 375.74 80.6904 369.78 65.3004C360.99 42.5704 346.14 25.1404 324.87 13.2104C324.77 12.2404 325.06 11.7004 326.15 12.0504C355.33 26.8904 373.38 50.4204 379.85 82.3904C389.24 128.81 361.85 177.44 317.51 193.98C317.05 194.15 316.54 194.2 316.05 194.3C314.89 194.76 314.72 194.16 314.88 193.21H314.89Z" fill="#3CA6CC"/>
<path d="M326.15 12.0504C325.72 12.4404 325.29 12.8204 324.87 13.2104C319.18 10.5104 313.48 7.81035 307.79 5.11035C314.48 5.93035 320.44 8.65035 326.15 12.0604V12.0504Z" fill="#48AED4"/>
<path d="M314.89 193.21C315.28 193.57 315.67 193.94 316.06 194.3C310.03 197.45 303.58 199.28 296.89 200.35C302.89 197.97 308.89 195.59 314.89 193.21Z" fill="#4BB0D6"/>
<path d="M293.96 99.8404C294.1 103.84 293.85 107.8 292.86 111.7C290.67 120.31 285.16 125.11 277.29 125.19C268.3 125.29 262.77 121.17 260.46 112.12C258.21 103.28 258.18 94.3304 261 85.5904C263.62 77.4804 268.85 74.0604 277.57 74.2004C284.67 74.3204 289.94 78.5604 292.36 86.0604C293.81 90.5504 294.15 95.1604 293.96 99.8404Z" fill="#FDFEFF"/>
<path d="M246.8 91.6401C246.8 95.6401 246.98 99.6501 246.74 103.63C246.54 106.93 247.32 108.74 251.05 108.24C252.31 108.07 253.84 108.01 253.99 109.99C254.13 111.87 252.91 112.38 251.46 112.15C247.07 111.43 246.78 113.86 246.66 117.35C246.58 119.64 248.93 124.02 244.36 123.96C239.94 123.9 242.04 119.52 242.15 117.27C242.36 112.92 240.72 111.85 236.7 112.14C232.06 112.47 227.37 112.09 222.71 112.25C218.36 112.4 218.05 109.78 219.74 107.22C226.78 96.5101 234.15 86.0201 241.4 75.4501C242.44 73.9401 244.02 74.0501 245.47 74.3601C247.32 74.7601 246.77 76.4401 246.79 77.6601C246.85 82.3201 246.81 86.9901 246.81 91.6501L246.8 91.6401Z" fill="#FCFEFF"/>
<path d="M325.79 91.4998C325.79 95.8298 325.92 100.17 325.74 104.49C325.62 107.27 326.5 108.46 329.4 108.24C330.89 108.13 333.08 107.6 332.96 110.35C332.86 112.68 330.92 112.3 329.59 112.14C325.21 111.61 326.08 114.6 325.7 117.19C325.35 119.56 327.85 123.82 323.48 123.94C318.85 124.06 321.07 119.61 321.14 117.38C321.27 113.24 320.04 111.73 315.82 112.11C311.85 112.47 307.83 112.3 303.84 112.14C301.98 112.06 299.54 113.22 298.37 111.08C297.2 108.93 298.66 106.97 299.92 105.15C305.6 96.9398 311.25 88.6999 316.92 80.4799C318.05 78.8299 319.19 77.1898 320.3 75.5298C321.32 74.0098 322.84 74.0598 324.33 74.3098C326.27 74.6298 325.76 76.2899 325.77 77.5099C325.83 82.1699 325.79 86.8398 325.8 91.4998H325.79Z" fill="#FCFEFF"/>
<path d="M288.94 99.6304C289.11 104.32 288.83 108.93 287.03 113.37C285.18 117.94 282.07 120.95 277.03 121.12C271.77 121.29 268.02 118.51 266.31 113.7C263.04 104.48 263.04 95.0604 266.26 85.8204C267.94 81.0104 271.65 78.1704 276.91 78.2804C281.96 78.3904 285.11 81.3604 286.99 85.9104C288.82 90.3304 289.13 94.9404 288.94 99.6404V99.6304Z" fill="#42B8EA"/>
<path d="M223.82 108.19C229.9 99.45 235.35 91.6 240.8 83.75C241.16 83.79 241.52 83.83 241.88 83.86C241.88 91.44 241.95 99.02 241.83 106.59C241.8 108.48 240 108.15 238.75 108.16C234.13 108.2 229.5 108.18 223.82 108.18V108.19Z" fill="#43B8EA"/>
<path d="M320.97 84.1096C320.97 90.8896 320.87 97.6796 321.02 104.46C321.08 107.17 320.32 108.37 317.4 108.24C312.94 108.04 308.47 108.19 302.85 108.19C308.83 99.5697 314.35 91.5996 319.87 83.6396C320.23 83.7996 320.6 83.9496 320.96 84.1096H320.97Z" fill="#43B8EA"/>
<ellipse cx="277.5" cy="100" rx="99.5" ry="100" fill="#42B8EA"/>
<path d="M258.531 101.688V106.438H225.656V103.031L246.031 71.5H250.75L245.688 80.625L232.219 101.688H258.531ZM252.188 71.5V117H246.406V71.5H252.188ZM292.344 90.625V97.5625C292.344 101.292 292.01 104.438 291.344 107C290.677 109.562 289.719 111.625 288.469 113.188C287.219 114.75 285.708 115.885 283.938 116.594C282.188 117.281 280.208 117.625 278 117.625C276.25 117.625 274.635 117.406 273.156 116.969C271.677 116.531 270.344 115.833 269.156 114.875C267.99 113.896 266.99 112.625 266.156 111.062C265.323 109.5 264.688 107.604 264.25 105.375C263.812 103.146 263.594 100.542 263.594 97.5625V90.625C263.594 86.8958 263.927 83.7708 264.594 81.25C265.281 78.7292 266.25 76.7083 267.5 75.1875C268.75 73.6458 270.25 72.5417 272 71.875C273.771 71.2083 275.75 70.875 277.938 70.875C279.708 70.875 281.333 71.0938 282.812 71.5312C284.312 71.9479 285.646 72.625 286.812 73.5625C287.979 74.4792 288.969 75.7083 289.781 77.25C290.615 78.7708 291.25 80.6354 291.688 82.8438C292.125 85.0521 292.344 87.6458 292.344 90.625ZM286.531 98.5V89.6562C286.531 87.6146 286.406 85.8229 286.156 84.2812C285.927 82.7188 285.583 81.3854 285.125 80.2812C284.667 79.1771 284.083 78.2812 283.375 77.5938C282.688 76.9062 281.885 76.4062 280.969 76.0938C280.073 75.7604 279.062 75.5938 277.938 75.5938C276.562 75.5938 275.344 75.8542 274.281 76.375C273.219 76.875 272.323 77.6771 271.594 78.7812C270.885 79.8854 270.344 81.3333 269.969 83.125C269.594 84.9167 269.406 87.0938 269.406 89.6562V98.5C269.406 100.542 269.521 102.344 269.75 103.906C270 105.469 270.365 106.823 270.844 107.969C271.323 109.094 271.906 110.021 272.594 110.75C273.281 111.479 274.073 112.021 274.969 112.375C275.885 112.708 276.896 112.875 278 112.875C279.417 112.875 280.656 112.604 281.719 112.062C282.781 111.521 283.667 110.677 284.375 109.531C285.104 108.365 285.646 106.875 286 105.062C286.354 103.229 286.531 101.042 286.531 98.5ZM330.531 101.688V106.438H297.656V103.031L318.031 71.5H322.75L317.688 80.625L304.219 101.688H330.531ZM324.188 71.5V117H318.406V71.5H324.188Z" fill="white"/>
</g>
<rect x="24.5" y="153.5" width="125" height="97" rx="7.5" fill="#E1EBEF" stroke="#3EB8EB"/>
<path d="M25 171H149.5" stroke="#3EB8EB"/>
<path d="M2.5 129.5L17 144" stroke="#3EB8EB" stroke-width="3"/>
<path d="M20 125L22 139" stroke="#3EB8EB" stroke-width="3"/>
<path d="M1 151.562L15 149.562" stroke="#3EB8EB" stroke-width="3"/>
<circle cx="62.5" cy="196.5" r="4.5" fill="#565656"/>
<circle cx="57.5" cy="212.5" r="4.5" fill="#F197BE"/>
<circle cx="115.5" cy="212.5" r="4.5" fill="#F197BE"/>
<path d="M96.6169 229H74.9768C73.8532 229 72.7621 228.54 72.1151 227.621C71.7557 227.111 71.4007 226.528 71.2131 226C70.7555 224.712 71.0891 223.176 71.7006 221.74C73.1603 218.314 76.4075 216.116 79.7096 214.393L82.3886 212.995C84.7788 211.748 87.6333 211.775 90 213.066L90.4068 213.287C94.8211 215.695 98.3197 219.49 100.362 224.085C100.875 225.239 100.624 226.589 99.7311 227.482L99.3417 227.871C98.6191 228.594 97.6389 229 96.6169 229Z" fill="#A9A9A9"/>
<path d="M94.9042 229H75.7351C74.6152 229 73.5216 228.546 72.8901 227.621C72.6069 227.206 72.3395 226.751 72.1904 226.333C71.8417 225.357 72.0071 224.221 72.4023 223.116C73.6549 219.613 77.0123 217.454 80.314 215.741L82.1907 214.767C84.3197 213.662 86.8583 213.685 88.9667 214.829L89.3685 215.047C93.2967 217.178 96.4134 220.544 98.2366 224.625C98.6961 225.653 98.4719 226.859 97.6732 227.653L97.3221 228.002C96.6797 228.641 95.8104 229 94.9042 229Z" fill="#939393"/>
<circle cx="65" cy="194" r="1" fill="white"/>
<circle cx="110.5" cy="196.5" r="4.5" fill="#565656"/>
<circle cx="113" cy="194" r="1" fill="white"/>
<ellipse cx="89.5" cy="262.5" rx="74.5" ry="2.5" fill="#DCDCDC"/>
<circle cx="31" cy="162" r="2" fill="#A2B7BC"/>
<circle cx="39" cy="162" r="2" fill="#A2B7BC"/>
<circle cx="47" cy="162" r="2" fill="#A2B7BC"/>
<path d="M28.5 175H44.5" stroke="#F9FBFC"/>
<path d="M135 246.5H143.5C144.605 246.5 145.5 245.605 145.5 244.5V238" stroke="#F9FBFC"/>
<defs>
<clipPath id="clip0_614_6882">
<rect width="206.69" height="208.34" fill="white" transform="translate(175)"/>
</clipPath>
</defs>
</svg>
